<!DOCTYPE svg PUBLIC "-//W3C//DTD SVG 1.1//EN" "http://www.w3.org/Graphics/SVG/1.1/DTD/svg11.dtd">
<!-- Uploaded to: SVG Repo, www.svgrepo.com, Transformed by: SVG Repo Mixer Tools -->
<svg fill="#615EFC" width="64px" height="64px" viewBox="0 0 32 32" version="1.1" xmlns="http://www.w3.org/2000/svg">
<g id="SVGRepo_bgCarrier" stroke-width="0"/>
<g id="SVGRepo_tracerCarrier" stroke-linecap="round" stroke-linejoin="round"/>
<g id="SVGRepo_iconCarrier"> <title>player-pain</title> <path d="M29.173 19.063c1.706-1.706 2.144-4.032 0.98-5.197s-3.491-0.726-5.197 0.98c-0.332 0.332-0.614 0.687-0.848 1.052-5.85-3.523-20.585 4.762-11.168 11.841l-0 0h-7.445l-1.65 2.979h16.047l-5.521-6.443c1.514-1.666 4.209-2.727 6.052-2.812 0.861 2.814 2.262 7.082 4.476 9.254h3.798c-2.688-2.905-4.778-6.809-5.114-11.225 0.101 0.203 0.231 0.388 0.393 0.551 1.165 1.165 3.491 0.726 5.197-0.98zM9.383 21.837c0.944-5.535 9.376-8.517 14.369-6.738l3.211-7.991-5.123 5.152 1.199-10.094-2.612 5.987-0.866-2.411-2.041 5.21-5.033-9.637 0.864 8.967-8.127-6.643 4.532 8.729-4.849-1.839 2.139 3.877-5.122-0.13 6.554 4.254-6.498 1.872 7.402 1.432z"/> </g>
</svg>